<?xml version="1.0" standalone="no"?>
<!DOCTYPE svg PUBLIC "-//W3C//DTD SVG 20010904//EN"
 "http://www.w3.org/TR/2001/REC-SVG-20010904/DTD/svg10.dtd">
<svg version="1.0" xmlns="http://www.w3.org/2000/svg"
 width="199.00000" height="199.00000" viewBox="0 0 199.00000 199.00000"
 preserveAspectRatio="xMidYMid meet">
<metadata>
Created by potrace 1.16, written by Peter Selinger 2001-2019
</metadata>
<g transform="translate(0.000000,192.000000) scale(0.100000,-0.100000)"
fill="#fff" stroke="none">
<path d="M1135 1690 c-22 -4 -85 -15 -140 -25 -55 -9 -136 -23 -180 -30 -44
-7 -125 -21 -180 -30 -94 -15 -148 -24 -355 -59 -47 -8 -107 -18 -135 -21 -81
-11 -99 -29 -75 -73 5 -9 26 -57 46 -107 127 -311 116 -290 153 -293 18 -2 31
0 29 5 -2 4 -10 22 -17 38 -51 118 -129 306 -136 333 l-6 22 760 0 c469 0 769
-4 785 -10 l26 -10 0 -175 0 -175 -89 0 c-87 0 -89 0 -95 26 -11 41 -94 117
-151 137 -42 14 -87 17 -292 17 l-243 0 0 -105 0 -105 230 0 231 0 13 -32 c25
-58 26 -58 -235 -58 l-239 0 0 -255 0 -256 103 3 102 3 3 147 3 148 145 0
c105 0 154 4 180 15 l35 14 29 -64 29 -65 121 0 120 0 0 -185 0 -185 -544 0
c-425 0 -547 3 -553 13 -4 6 -12 26 -18 42 -8 24 -17 31 -43 33 l-32 3 21 -53
c12 -29 25 -63 30 -75 l9 -23 559 0 c553 0 604 3 623 33 4 7 8 99 8 205 l0
192 45 0 45 0 -2 213 -3 212 -42 3 -43 3 0 184 0 183 -31 26 c-30 26 -32 26
-199 26 l-169 0 -11 58 c-23 112 -98 157 -225 132z m124 -56 c28 -16 61 -78
61 -114 0 -20 -7 -20 -492 -19 -577 1 -587 -9 102 105 58 9 134 23 170 30 90
17 128 17 159 -2z m551 -774 l0 -160 -155 0 c-120 0 -155 3 -155 13 0 7 -9 30
-20 51 -19 38 -14 76 10 76 6 0 10 7 10 15 0 8 4 15 9 15 11 0 41 96 41 129 0
20 5 21 130 21 l130 0 0 -160z"/>
<path d="M1605 938 c-51 -27 -62 -98 -22 -136 35 -33 99 -30 126 4 59 75 -22
177 -104 132z"/>
<path d="M600 1150 l0 -100 105 0 105 0 0 100 0 100 -105 0 -105 0 0 -100z"/>
<path d="M600 837 c0 -122 0 -124 -28 -150 -64 -61 -152 -15 -152 79 l0 45
-102 -3 -103 -3 0 -70 c1 -112 54 -198 156 -254 33 -18 65 -25 126 -29 74 -4
86 -2 137 23 69 34 116 79 147 142 21 43 24 64 27 196 l3 147 -105 0 -106 0 0
-123z"/>
</g>
</svg>
